<svg width="284" height="218" viewBox="0 0 284 218" fill="none" xmlns="http://www.w3.org/2000/svg">
<rect width="284" height="218" fill="#21252E"/>
<rect x="1" y="-1" width="10" height="10" rx="5" transform="matrix(1 0 0 -1 267 19)" fill="#565B7C"/>
<rect x="1" y="-1" width="10" height="10" rx="5" transform="matrix(1 0 0 -1 267 19)" stroke="black" stroke-width="2"/>
<rect x="1" y="-1" width="10" height="10" rx="5" transform="matrix(1 0 0 -1 267 209)" fill="#565B7C"/>
<rect x="1" y="-1" width="10" height="10" rx="5" transform="matrix(1 0 0 -1 267 209)" stroke="black" stroke-width="2"/>
<rect x="1" y="-1" width="10" height="10" rx="5" transform="matrix(1 0 0 -1 8 19)" fill="#565B7C"/>
<rect x="1" y="-1" width="10" height="10" rx="5" transform="matrix(1 0 0 -1 8 19)" stroke="black" stroke-width="2"/>
<rect x="1" y="-1" width="10" height="10" rx="5" transform="matrix(1 0 0 -1 8 209)" fill="#565B7C"/>
<rect x="1" y="-1" width="10" height="10" rx="5" transform="matrix(1 0 0 -1 8 209)" stroke="black" stroke-width="2"/>
<rect width="239" height="172" transform="translate(22 25)" fill="#6D7DA1"/>
<path d="M30 94C30 91.2386 32.2386 89 35 89H75C77.7614 89 80 91.2386 80 94V134C80 136.761 77.7614 139 75 139H35C32.2386 139 30 136.761 30 134V94Z" fill="#212530"/>
<rect x="33" y="92" width="44" height="44" rx="5" fill="#E4612B"/>
<path d="M53.3525 118.947C53.3525 119.541 53.2386 120.099 53.0107 120.62C52.791 121.14 52.4858 121.596 52.0952 121.987C51.7046 122.377 51.2489 122.687 50.728 122.915C50.2072 123.134 49.6497 123.244 49.0557 123.244H48.2988C47.7048 123.244 47.1473 123.134 46.6265 122.915C46.1056 122.687 45.6499 122.377 45.2593 121.987C44.8687 121.596 44.5594 121.14 44.3315 120.62C44.1118 120.099 44.002 119.541 44.002 118.947V118.496L45.5767 118.251V118.947C45.5767 119.338 45.6499 119.704 45.7964 120.046C45.9429 120.38 46.1423 120.677 46.3945 120.937C46.6468 121.189 46.9398 121.389 47.2734 121.535C47.6152 121.682 47.9814 121.755 48.3721 121.755H48.9702C49.3608 121.755 49.723 121.682 50.0566 121.535C50.3984 121.389 50.6955 121.189 50.9478 120.937C51.2082 120.677 51.4116 120.38 51.5581 120.046C51.7046 119.704 51.7778 119.338 51.7778 118.947V114.602C51.3709 115.041 50.8908 115.395 50.3374 115.664C49.784 115.924 49.1899 116.054 48.5552 116.054H48.2988C47.7048 116.054 47.1473 115.944 46.6265 115.725C46.1056 115.497 45.6499 115.188 45.2593 114.797C44.8687 114.406 44.5594 113.951 44.3315 113.43C44.1118 112.901 44.002 112.339 44.002 111.745V109.548C44.002 108.954 44.1118 108.396 44.3315 107.875C44.5594 107.355 44.8687 106.899 45.2593 106.508C45.6499 106.118 46.1056 105.812 46.6265 105.593C47.1473 105.365 47.7048 105.251 48.2988 105.251H49.0557C49.6497 105.251 50.2072 105.365 50.728 105.593C51.2489 105.812 51.7046 106.118 52.0952 106.508C52.4858 106.899 52.791 107.355 53.0107 107.875C53.2386 108.396 53.3525 108.954 53.3525 109.548V118.947ZM51.7778 109.548C51.7778 109.157 51.7046 108.795 51.5581 108.461C51.4116 108.12 51.2082 107.823 50.9478 107.57C50.6955 107.318 50.3984 107.119 50.0566 106.972C49.723 106.826 49.3608 106.752 48.9702 106.752H48.3721C47.9814 106.752 47.6152 106.826 47.2734 106.972C46.9398 107.119 46.6468 107.318 46.3945 107.57C46.1423 107.823 45.9429 108.12 45.7964 108.461C45.6499 108.795 45.5767 109.157 45.5767 109.548V111.745C45.5767 112.136 45.6499 112.502 45.7964 112.844C45.9429 113.177 46.1423 113.474 46.3945 113.735C46.6468 113.987 46.9398 114.187 47.2734 114.333C47.6152 114.479 47.9814 114.553 48.3721 114.553H48.9702C49.3608 114.553 49.723 114.479 50.0566 114.333C50.3984 114.187 50.6955 113.987 50.9478 113.735C51.2082 113.474 51.4116 113.177 51.5581 112.844C51.7046 112.502 51.7778 112.136 51.7778 111.745V109.548ZM65.9624 118.947C65.9624 119.541 65.8485 120.099 65.6206 120.62C65.4009 121.14 65.0957 121.596 64.7051 121.987C64.3145 122.377 63.8587 122.687 63.3379 122.915C62.8171 123.134 62.2596 123.244 61.6655 123.244H60.9209C60.3268 123.244 59.7653 123.134 59.2363 122.915C58.7155 122.687 58.2598 122.377 57.8691 121.987C57.4785 121.596 57.1693 121.14 56.9414 120.62C56.7217 120.099 56.6118 119.541 56.6118 118.947V109.548C56.6118 108.954 56.7217 108.396 56.9414 107.875C57.1693 107.355 57.4785 106.899 57.8691 106.508C58.2598 106.118 58.7155 105.812 59.2363 105.593C59.7653 105.365 60.3268 105.251 60.9209 105.251H61.6655C62.2596 105.251 62.8171 105.365 63.3379 105.593C63.8587 105.812 64.3145 106.118 64.7051 106.508C65.0957 106.899 65.4009 107.355 65.6206 107.875C65.8485 108.396 65.9624 108.954 65.9624 109.548V118.947ZM64.3877 109.548C64.3877 109.157 64.3145 108.795 64.168 108.461C64.0215 108.12 63.8221 107.823 63.5698 107.57C63.3175 107.318 63.0205 107.119 62.6787 106.972C62.3451 106.826 61.9829 106.752 61.5923 106.752H60.9941C60.6035 106.752 60.2373 106.826 59.8955 106.972C59.5618 107.119 59.2648 107.318 59.0044 107.57C58.7521 107.823 58.5527 108.12 58.4062 108.461C58.2598 108.795 58.1865 109.157 58.1865 109.548V118.947C58.1865 119.338 58.2598 119.704 58.4062 120.046C58.5527 120.38 58.7521 120.677 59.0044 120.937C59.2648 121.189 59.5618 121.389 59.8955 121.535C60.2373 121.682 60.6035 121.755 60.9941 121.755H61.5923C61.9829 121.755 62.3451 121.682 62.6787 121.535C63.0205 121.389 63.3175 121.189 63.5698 120.937C63.8221 120.677 64.0215 120.38 64.168 120.046C64.3145 119.704 64.3877 119.338 64.3877 118.947V109.548Z" fill="white"/>
<path d="M88 94C88 91.2386 90.2386 89 93 89H133C135.761 89 138 91.2386 138 94V134C138 136.761 135.761 139 133 139H93C90.2386 139 88 136.761 88 134V94Z" fill="#212530"/>
<rect x="91" y="92" width="44" height="44" rx="5" fill="#E4612B"/>
<path d="M109.351 119.973V123H107.776V119.973H100.745V119.228L108.521 105.495H109.351V118.471H110.852V119.973H109.351ZM107.776 109.804L102.954 118.471H107.776V109.804ZM123.45 118.947C123.45 119.541 123.336 120.099 123.108 120.62C122.888 121.14 122.583 121.596 122.192 121.987C121.802 122.377 121.346 122.687 120.825 122.915C120.304 123.134 119.747 123.244 119.153 123.244H118.408C117.814 123.244 117.253 123.134 116.724 122.915C116.203 122.687 115.747 122.377 115.356 121.987C114.966 121.596 114.657 121.14 114.429 120.62C114.209 120.099 114.099 119.541 114.099 118.947V118.679H115.674V118.947C115.674 119.338 115.747 119.704 115.894 120.046C116.04 120.38 116.239 120.677 116.492 120.937C116.752 121.189 117.049 121.389 117.383 121.535C117.725 121.682 118.091 121.755 118.481 121.755H119.08C119.47 121.755 119.832 121.682 120.166 121.535C120.508 121.389 120.805 121.189 121.057 120.937C121.309 120.677 121.509 120.38 121.655 120.046C121.802 119.704 121.875 119.338 121.875 118.947V115.554C121.875 115.163 121.802 114.801 121.655 114.467C121.509 114.125 121.309 113.828 121.057 113.576C120.805 113.316 120.508 113.112 120.166 112.966C119.832 112.819 119.47 112.746 119.08 112.746H118.481C118.091 112.746 117.725 112.819 117.383 112.966C117.049 113.112 116.752 113.316 116.492 113.576C116.239 113.828 116.04 114.125 115.894 114.467C115.747 114.801 115.674 115.163 115.674 115.554H114.099L115.1 105.495H122.583V106.997H116.577L116.003 112.38C116.378 112.022 116.813 111.745 117.31 111.55C117.806 111.346 118.339 111.245 118.909 111.245H119.153C119.747 111.245 120.304 111.359 120.825 111.586C121.346 111.806 121.802 112.111 122.192 112.502C122.583 112.893 122.888 113.352 123.108 113.881C123.336 114.402 123.45 114.96 123.45 115.554V118.947Z" fill="white"/>
<path d="M146 94C146 91.2386 148.239 89 151 89H191C193.761 89 196 91.2386 196 94V134C196 136.761 193.761 139 191 139H151C148.239 139 146 136.761 146 134V94Z" fill="#212530"/>
<rect x="149" y="92" width="44" height="44" rx="5" fill="#E4612B"/>
<path d="M153.002 123V121.499H157.177V106.997L153.002 108.754V107.253L157.177 105.495H158.751V121.499H162.926V123H153.002ZM175.036 118.947C175.036 119.541 174.922 120.099 174.694 120.62C174.474 121.14 174.169 121.596 173.778 121.987C173.388 122.377 172.932 122.687 172.411 122.915C171.89 123.134 171.333 123.244 170.739 123.244H169.994C169.4 123.244 168.839 123.134 168.31 122.915C167.789 122.687 167.333 122.377 166.942 121.987C166.552 121.596 166.243 121.14 166.015 120.62C165.795 120.099 165.685 119.541 165.685 118.947V118.496L167.26 118.251V118.947C167.26 119.338 167.333 119.704 167.479 120.046C167.626 120.38 167.825 120.677 168.078 120.937C168.338 121.189 168.635 121.389 168.969 121.535C169.311 121.682 169.677 121.755 170.067 121.755H170.666C171.056 121.755 171.418 121.682 171.752 121.535C172.094 121.389 172.391 121.189 172.643 120.937C172.895 120.677 173.095 120.38 173.241 120.046C173.388 119.704 173.461 119.338 173.461 118.947V117.495C173.461 117.104 173.388 116.742 173.241 116.408C173.095 116.066 172.895 115.769 172.643 115.517C172.391 115.265 172.094 115.065 171.752 114.919C171.418 114.772 171.056 114.699 170.666 114.699H169.494V113.198H170.666C171.056 113.198 171.418 113.125 171.752 112.978C172.094 112.832 172.391 112.632 172.643 112.38C172.895 112.128 173.095 111.835 173.241 111.501C173.388 111.159 173.461 110.793 173.461 110.402V109.548C173.461 109.157 173.388 108.795 173.241 108.461C173.095 108.12 172.895 107.823 172.643 107.57C172.391 107.318 172.094 107.119 171.752 106.972C171.418 106.826 171.056 106.752 170.666 106.752H170.067C169.677 106.752 169.311 106.826 168.969 106.972C168.635 107.119 168.338 107.318 168.078 107.57C167.825 107.823 167.626 108.12 167.479 108.461C167.333 108.795 167.26 109.157 167.26 109.548V110.256L165.685 110V109.548C165.685 108.954 165.795 108.396 166.015 107.875C166.243 107.355 166.552 106.899 166.942 106.508C167.333 106.118 167.789 105.812 168.31 105.593C168.839 105.365 169.4 105.251 169.994 105.251H170.739C171.333 105.251 171.89 105.365 172.411 105.593C172.932 105.812 173.388 106.118 173.778 106.508C174.169 106.899 174.474 107.355 174.694 107.875C174.922 108.396 175.036 108.954 175.036 109.548V110.146C175.036 110.561 174.979 110.96 174.865 111.342C174.759 111.717 174.604 112.067 174.401 112.392C174.206 112.718 173.97 113.015 173.693 113.283C173.416 113.544 173.107 113.767 172.765 113.955C173.107 114.134 173.416 114.357 173.693 114.626C173.97 114.886 174.206 115.179 174.401 115.505C174.604 115.83 174.759 116.184 174.865 116.567C174.979 116.941 175.036 117.336 175.036 117.751V118.947ZM187.658 118.947C187.658 119.541 187.544 120.099 187.316 120.62C187.096 121.14 186.791 121.596 186.4 121.987C186.01 122.377 185.554 122.687 185.033 122.915C184.512 123.134 183.955 123.244 183.361 123.244H182.616C182.022 123.244 181.461 123.134 180.932 122.915C180.411 122.687 179.955 122.377 179.564 121.987C179.174 121.596 178.865 121.14 178.637 120.62C178.417 120.099 178.307 119.541 178.307 118.947V118.679H179.882V118.947C179.882 119.338 179.955 119.704 180.102 120.046C180.248 120.38 180.447 120.677 180.7 120.937C180.96 121.189 181.257 121.389 181.591 121.535C181.933 121.682 182.299 121.755 182.689 121.755H183.288C183.678 121.755 184.04 121.682 184.374 121.535C184.716 121.389 185.013 121.189 185.265 120.937C185.517 120.677 185.717 120.38 185.863 120.046C186.01 119.704 186.083 119.338 186.083 118.947V115.554C186.083 115.163 186.01 114.801 185.863 114.467C185.717 114.125 185.517 113.828 185.265 113.576C185.013 113.316 184.716 113.112 184.374 112.966C184.04 112.819 183.678 112.746 183.288 112.746H182.689C182.299 112.746 181.933 112.819 181.591 112.966C181.257 113.112 180.96 113.316 180.7 113.576C180.447 113.828 180.248 114.125 180.102 114.467C179.955 114.801 179.882 115.163 179.882 115.554H178.307L179.308 105.495H186.791V106.997H180.785L180.211 112.38C180.586 112.022 181.021 111.745 181.518 111.55C182.014 111.346 182.547 111.245 183.117 111.245H183.361C183.955 111.245 184.512 111.359 185.033 111.586C185.554 111.806 186.01 112.111 186.4 112.502C186.791 112.893 187.096 113.352 187.316 113.881C187.544 114.402 187.658 114.96 187.658 115.554V118.947Z" fill="white"/>
<path d="M204 94C204 91.2386 206.239 89 209 89H249C251.761 89 254 91.2386 254 94V134C254 136.761 251.761 139 249 139H209C206.239 139 204 136.761 204 134V94Z" fill="#212530"/>
<rect x="207" y="92" width="44" height="44" rx="5" fill="#E4612B"/>
<path d="M211.002 123V121.499H215.177V106.997L211.002 108.754V107.253L215.177 105.495H216.751V121.499H220.926V123H211.002ZM233.036 118.947C233.036 119.541 232.922 120.099 232.694 120.62C232.474 121.14 232.169 121.596 231.778 121.987C231.388 122.377 230.932 122.687 230.411 122.915C229.89 123.134 229.333 123.244 228.739 123.244H227.994C227.4 123.244 226.839 123.134 226.31 122.915C225.789 122.687 225.333 122.377 224.942 121.987C224.552 121.596 224.243 121.14 224.015 120.62C223.795 120.099 223.685 119.541 223.685 118.947V117.495C223.685 116.754 223.856 116.079 224.198 115.468C224.548 114.85 225.003 114.345 225.565 113.955C225.003 113.564 224.548 113.059 224.198 112.441C223.856 111.822 223.685 111.143 223.685 110.402V109.548C223.685 108.954 223.795 108.396 224.015 107.875C224.243 107.355 224.552 106.899 224.942 106.508C225.333 106.118 225.789 105.812 226.31 105.593C226.839 105.365 227.4 105.251 227.994 105.251H228.739C229.333 105.251 229.89 105.365 230.411 105.593C230.932 105.812 231.388 106.118 231.778 106.508C232.169 106.899 232.474 107.355 232.694 107.875C232.922 108.396 233.036 108.954 233.036 109.548V110.402C233.036 111.143 232.865 111.822 232.523 112.441C232.181 113.059 231.729 113.564 231.168 113.955C231.729 114.345 232.181 114.85 232.523 115.468C232.865 116.079 233.036 116.754 233.036 117.495V118.947ZM231.461 109.548C231.461 109.157 231.388 108.795 231.241 108.461C231.095 108.12 230.895 107.823 230.643 107.57C230.391 107.318 230.094 107.119 229.752 106.972C229.418 106.826 229.056 106.752 228.666 106.752H228.067C227.677 106.752 227.311 106.826 226.969 106.972C226.635 107.119 226.338 107.318 226.078 107.57C225.825 107.823 225.626 108.12 225.479 108.461C225.333 108.795 225.26 109.157 225.26 109.548V110.402C225.26 110.793 225.333 111.159 225.479 111.501C225.626 111.835 225.825 112.128 226.078 112.38C226.338 112.632 226.635 112.832 226.969 112.978C227.311 113.125 227.677 113.198 228.067 113.198H228.666C229.056 113.198 229.418 113.125 229.752 112.978C230.094 112.832 230.391 112.632 230.643 112.38C230.895 112.128 231.095 111.835 231.241 111.501C231.388 111.159 231.461 110.793 231.461 110.402V109.548ZM231.461 117.495C231.461 117.104 231.388 116.742 231.241 116.408C231.095 116.066 230.895 115.769 230.643 115.517C230.391 115.265 230.094 115.065 229.752 114.919C229.418 114.772 229.056 114.699 228.666 114.699H228.067C227.677 114.699 227.311 114.772 226.969 114.919C226.635 115.065 226.338 115.265 226.078 115.517C225.825 115.769 225.626 116.066 225.479 116.408C225.333 116.742 225.26 117.104 225.26 117.495V118.947C225.26 119.338 225.333 119.704 225.479 120.046C225.626 120.38 225.825 120.677 226.078 120.937C226.338 121.189 226.635 121.389 226.969 121.535C227.311 121.682 227.677 121.755 228.067 121.755H228.666C229.056 121.755 229.418 121.682 229.752 121.535C230.094 121.389 230.391 121.189 230.643 120.937C230.895 120.677 231.095 120.38 231.241 120.046C231.388 119.704 231.461 119.338 231.461 118.947V117.495ZM245.658 118.947C245.658 119.541 245.544 120.099 245.316 120.62C245.096 121.14 244.791 121.596 244.4 121.987C244.01 122.377 243.554 122.687 243.033 122.915C242.512 123.134 241.955 123.244 241.361 123.244H240.616C240.022 123.244 239.461 123.134 238.932 122.915C238.411 122.687 237.955 122.377 237.564 121.987C237.174 121.596 236.865 121.14 236.637 120.62C236.417 120.099 236.307 119.541 236.307 118.947V109.548C236.307 108.954 236.417 108.396 236.637 107.875C236.865 107.355 237.174 106.899 237.564 106.508C237.955 106.118 238.411 105.812 238.932 105.593C239.461 105.365 240.022 105.251 240.616 105.251H241.361C241.955 105.251 242.512 105.365 243.033 105.593C243.554 105.812 244.01 106.118 244.4 106.508C244.791 106.899 245.096 107.355 245.316 107.875C245.544 108.396 245.658 108.954 245.658 109.548V118.947ZM244.083 109.548C244.083 109.157 244.01 108.795 243.863 108.461C243.717 108.12 243.517 107.823 243.265 107.57C243.013 107.318 242.716 107.119 242.374 106.972C242.04 106.826 241.678 106.752 241.288 106.752H240.689C240.299 106.752 239.933 106.826 239.591 106.972C239.257 107.119 238.96 107.318 238.7 107.57C238.447 107.823 238.248 108.12 238.102 108.461C237.955 108.795 237.882 109.157 237.882 109.548V118.947C237.882 119.338 237.955 119.704 238.102 120.046C238.248 120.38 238.447 120.677 238.7 120.937C238.96 121.189 239.257 121.389 239.591 121.535C239.933 121.682 240.299 121.755 240.689 121.755H241.288C241.678 121.755 242.04 121.682 242.374 121.535C242.716 121.389 243.013 121.189 243.265 120.937C243.517 120.677 243.717 120.38 243.863 120.046C244.01 119.704 244.083 119.338 244.083 118.947V109.548Z" fill="white"/>
<path d="M204 146C204 143.239 206.239 141 209 141H249C251.761 141 254 143.239 254 146V186C254 188.761 251.761 191 249 191H209C206.239 191 204 188.761 204 186V146Z" fill="#212530"/>
<rect x="207" y="145" width="43" height="43" rx="21.5" fill="white"/>
<g clip-path="url(#clip0_11_621)">
<rect x="209" y="147" width="39" height="39" rx="19.5" fill="#212530"/>
<rect x="227" y="145" width="3" height="5" rx="1.5" fill="white"/>
<rect x="227" y="183" width="3" height="5" rx="1.5" fill="white"/>
<rect x="207" y="167" width="3" height="5" rx="1.5" transform="rotate(-90 207 167)" fill="white"/>
<rect x="213" y="152.121" width="3" height="5" rx="1.5" transform="rotate(-45 213 152.121)" fill="white"/>
<rect x="239" y="179.121" width="3" height="5" rx="1.5" transform="rotate(-45 239 179.121)" fill="white"/>
<path d="M215.061 181.475C214.475 182.061 213.525 182.061 212.939 181.475V181.475C212.354 180.889 212.354 179.939 212.939 179.354L214.354 177.939C214.939 177.354 215.889 177.354 216.475 177.939V177.939C217.061 178.525 217.061 179.475 216.475 180.061L215.061 181.475Z" fill="white"/>
</g>
<g clip-path="url(#clip1_11_621)">
<rect x="209" y="147" width="39" height="39" rx="19.5" fill="#212530"/>
<rect x="227" y="145" width="3" height="5" rx="1.5" fill="white"/>
<rect x="227" y="183" width="3" height="5" rx="1.5" fill="white"/>
<rect x="207" y="167" width="3" height="5" rx="1.5" transform="rotate(-90 207 167)" fill="white"/>
<rect x="213" y="152.121" width="3" height="5" rx="1.5" transform="rotate(-45 213 152.121)" fill="white"/>
<rect x="239" y="179.121" width="3" height="5" rx="1.5" transform="rotate(-45 239 179.121)" fill="white"/>
<path d="M215.061 181.475C214.475 182.061 213.525 182.061 212.939 181.475V181.475C212.354 180.889 212.354 179.939 212.939 179.354L214.354 177.939C214.939 177.354 215.889 177.354 216.475 177.939V177.939C217.061 178.525 217.061 179.475 216.475 180.061L215.061 181.475Z" fill="white"/>
<path d="M241.975 154.561C241.389 155.146 240.439 155.146 239.854 154.561V154.561C239.268 153.975 239.268 153.025 239.854 152.439L241.268 151.025C241.854 150.439 242.803 150.439 243.389 151.025V151.025C243.975 151.611 243.975 152.561 243.389 153.146L241.975 154.561Z" fill="white"/>
</g>
<rect x="245" y="167" width="3" height="5" rx="1.5" transform="rotate(-90 245 167)" fill="white"/>
<path d="M146 146C146 143.239 148.239 141 151 141H191C193.761 141 196 143.239 196 146V186C196 188.761 193.761 191 191 191H151C148.239 191 146 188.761 146 186V146Z" fill="#212530"/>
<rect x="149" y="145" width="43" height="43" rx="21.5" fill="white"/>
<g clip-path="url(#clip2_11_621)">
<rect x="151" y="147" width="39" height="39" rx="19.5" fill="#212530"/>
<rect x="169" y="145" width="3" height="5" rx="1.5" fill="white"/>
<rect x="169" y="183" width="3" height="5" rx="1.5" fill="white"/>
<rect x="149" y="167" width="3" height="5" rx="1.5" transform="rotate(-90 149 167)" fill="white"/>
<rect x="155" y="152.121" width="3" height="5" rx="1.5" transform="rotate(-45 155 152.121)" fill="white"/>
<rect x="181" y="179.121" width="3" height="5" rx="1.5" transform="rotate(-45 181 179.121)" fill="white"/>
<path d="M157.061 181.475C156.475 182.061 155.525 182.061 154.939 181.475V181.475C154.354 180.889 154.354 179.939 154.939 179.354L156.354 177.939C156.939 177.354 157.889 177.354 158.475 177.939V177.939C159.061 178.525 159.061 179.475 158.475 180.061L157.061 181.475Z" fill="white"/>
</g>
<g clip-path="url(#clip3_11_621)">
<rect x="151" y="147" width="39" height="39" rx="19.5" fill="#212530"/>
<rect x="169" y="145" width="3" height="5" rx="1.5" fill="white"/>
<rect x="169" y="183" width="3" height="5" rx="1.5" fill="white"/>
<rect x="149" y="167" width="3" height="5" rx="1.5" transform="rotate(-90 149 167)" fill="white"/>
<rect x="155" y="152.121" width="3" height="5" rx="1.5" transform="rotate(-45 155 152.121)" fill="white"/>
<rect x="181" y="179.121" width="3" height="5" rx="1.5" transform="rotate(-45 181 179.121)" fill="white"/>
<path d="M157.061 181.475C156.475 182.061 155.525 182.061 154.939 181.475V181.475C154.354 180.889 154.354 179.939 154.939 179.354L156.354 177.939C156.939 177.354 157.889 177.354 158.475 177.939V177.939C159.061 178.525 159.061 179.475 158.475 180.061L157.061 181.475Z" fill="white"/>
<path d="M183.975 154.561C183.389 155.146 182.439 155.146 181.854 154.561V154.561C181.268 153.975 181.268 153.025 181.854 152.439L183.268 151.025C183.854 150.439 184.803 150.439 185.389 151.025V151.025C185.975 151.611 185.975 152.561 185.389 153.146L183.975 154.561Z" fill="white"/>
</g>
<rect x="187" y="167" width="3" height="5" rx="1.5" transform="rotate(-90 187 167)" fill="white"/>
<path d="M88 146C88 143.239 90.2386 141 93 141H133C135.761 141 138 143.239 138 146V186C138 188.761 135.761 191 133 191H93C90.2386 191 88 188.761 88 186V146Z" fill="#212530"/>
<rect x="91" y="145" width="43" height="43" rx="21.5" fill="white"/>
<g clip-path="url(#clip4_11_621)">
<rect x="93" y="147" width="39" height="39" rx="19.5" fill="#212530"/>
<rect x="111" y="145" width="3" height="5" rx="1.5" fill="white"/>
<rect x="111" y="183" width="3" height="5" rx="1.5" fill="white"/>
<rect x="91" y="167" width="3" height="5" rx="1.5" transform="rotate(-90 91 167)" fill="white"/>
<rect x="97" y="152.121" width="3" height="5" rx="1.5" transform="rotate(-45 97 152.121)" fill="white"/>
<rect x="123" y="179.121" width="3" height="5" rx="1.5" transform="rotate(-45 123 179.121)" fill="white"/>
<path d="M99.0607 181.475C98.4749 182.061 97.5251 182.061 96.9394 181.475V181.475C96.3536 180.889 96.3536 179.939 96.9394 179.354L98.3536 177.939C98.9394 177.354 99.8891 177.354 100.475 177.939V177.939C101.061 178.525 101.061 179.475 100.475 180.061L99.0607 181.475Z" fill="white"/>
</g>
<g clip-path="url(#clip5_11_621)">
<rect x="93" y="147" width="39" height="39" rx="19.5" fill="#212530"/>
<rect x="111" y="145" width="3" height="5" rx="1.5" fill="white"/>
<rect x="111" y="183" width="3" height="5" rx="1.5" fill="white"/>
<rect x="91" y="167" width="3" height="5" rx="1.5" transform="rotate(-90 91 167)" fill="white"/>
<rect x="97" y="152.121" width="3" height="5" rx="1.5" transform="rotate(-45 97 152.121)" fill="white"/>
<rect x="123" y="179.121" width="3" height="5" rx="1.5" transform="rotate(-45 123 179.121)" fill="white"/>
<path d="M99.0607 181.475C98.4749 182.061 97.5251 182.061 96.9394 181.475V181.475C96.3536 180.889 96.3536 179.939 96.9394 179.354L98.3536 177.939C98.9394 177.354 99.8891 177.354 100.475 177.939V177.939C101.061 178.525 101.061 179.475 100.475 180.061L99.0607 181.475Z" fill="white"/>
<path d="M125.975 154.561C125.389 155.146 124.439 155.146 123.854 154.561V154.561C123.268 153.975 123.268 153.025 123.854 152.439L125.268 151.025C125.854 150.439 126.803 150.439 127.389 151.025V151.025C127.975 151.611 127.975 152.561 127.389 153.146L125.975 154.561Z" fill="white"/>
</g>
<rect x="129" y="167" width="3" height="5" rx="1.5" transform="rotate(-90 129 167)" fill="white"/>
<path d="M30 146C30 143.239 32.2386 141 35 141H75C77.7614 141 80 143.239 80 146V186C80 188.761 77.7614 191 75 191H35C32.2386 191 30 188.761 30 186V146Z" fill="#212530"/>
<rect x="33" y="145" width="43" height="43" rx="21.5" fill="white"/>
<g clip-path="url(#clip6_11_621)">
<rect x="35" y="147" width="39" height="39" rx="19.5" fill="#212530"/>
<rect x="53" y="145" width="3" height="5" rx="1.5" fill="white"/>
<rect x="53" y="183" width="3" height="5" rx="1.5" fill="white"/>
<rect x="33" y="167" width="3" height="5" rx="1.5" transform="rotate(-90 33 167)" fill="white"/>
<rect x="39" y="152.121" width="3" height="5" rx="1.5" transform="rotate(-45 39 152.121)" fill="white"/>
<rect x="65" y="179.121" width="3" height="5" rx="1.5" transform="rotate(-45 65 179.121)" fill="white"/>
<path d="M41.0607 181.475C40.4749 182.061 39.5251 182.061 38.9394 181.475V181.475C38.3536 180.889 38.3536 179.939 38.9394 179.354L40.3536 177.939C40.9394 177.354 41.8891 177.354 42.4749 177.939V177.939C43.0607 178.525 43.0607 179.475 42.4749 180.061L41.0607 181.475Z" fill="white"/>
</g>
<g clip-path="url(#clip7_11_621)">
<rect x="35" y="147" width="39" height="39" rx="19.5" fill="#212530"/>
<rect x="53" y="145" width="3" height="5" rx="1.5" fill="white"/>
<rect x="53" y="183" width="3" height="5" rx="1.5" fill="white"/>
<rect x="33" y="167" width="3" height="5" rx="1.5" transform="rotate(-90 33 167)" fill="white"/>
<rect x="39" y="152.121" width="3" height="5" rx="1.5" transform="rotate(-45 39 152.121)" fill="white"/>
<rect x="65" y="179.121" width="3" height="5" rx="1.5" transform="rotate(-45 65 179.121)" fill="white"/>
<path d="M41.0607 181.475C40.4749 182.061 39.5251 182.061 38.9394 181.475V181.475C38.3536 180.889 38.3536 179.939 38.9394 179.354L40.3536 177.939C40.9394 177.354 41.8891 177.354 42.4749 177.939V177.939C43.0607 178.525 43.0607 179.475 42.4749 180.061L41.0607 181.475Z" fill="white"/>
<path d="M67.9749 154.561C67.3891 155.146 66.4394 155.146 65.8536 154.561V154.561C65.2678 153.975 65.2678 153.025 65.8536 152.439L67.2678 151.025C67.8536 150.439 68.8033 150.439 69.3891 151.025V151.025C69.9749 151.611 69.9749 152.561 69.3891 153.146L67.9749 154.561Z" fill="white"/>
</g>
<rect x="71" y="167" width="3" height="5" rx="1.5" transform="rotate(-90 71 167)" fill="white"/>
<rect width="224" height="30" transform="translate(30 40)" fill="white" fill-opacity="0.2"/>
<rect width="4" height="4" transform="translate(33 43)" fill="#4D596E"/>
<rect width="4" height="4" transform="translate(33 63)" fill="#4D596E"/>
<rect width="4" height="4" transform="translate(247 43)" fill="#4D596E"/>
<rect width="4" height="4" transform="translate(247 63)" fill="#4D596E"/>
<rect x="41" y="53" width="204" height="3" fill="#212530"/>
<rect width="29" height="20" transform="translate(57 45)" fill="#E9E9F5"/>
<rect width="23" height="14" transform="translate(60 48)" fill="#0E0B0B" fill-opacity="0.1"/>
<rect width="5" height="10" transform="translate(62 50)" fill="#E9E9F5"/>
<rect width="5" height="10" transform="translate(69 50)" fill="#E9E9F5"/>
<rect width="5" height="10" transform="translate(76 50)" fill="#E9E9F5"/>
<rect x="85" y="45" width="1" height="20" fill="#D3D3DE"/>
<rect x="57" y="63" width="29" height="2" fill="#D3D3DE"/>
<defs>
<clipPath id="clip0_11_621">
<rect x="209" y="147" width="39" height="39" rx="19.5" fill="white"/>
</clipPath>
<clipPath id="clip1_11_621">
<rect x="209" y="147" width="39" height="39" rx="19.5" fill="white"/>
</clipPath>
<clipPath id="clip2_11_621">
<rect x="151" y="147" width="39" height="39" rx="19.5" fill="white"/>
</clipPath>
<clipPath id="clip3_11_621">
<rect x="151" y="147" width="39" height="39" rx="19.5" fill="white"/>
</clipPath>
<clipPath id="clip4_11_621">
<rect x="93" y="147" width="39" height="39" rx="19.5" fill="white"/>
</clipPath>
<clipPath id="clip5_11_621">
<rect x="93" y="147" width="39" height="39" rx="19.5" fill="white"/>
</clipPath>
<clipPath id="clip6_11_621">
<rect x="35" y="147" width="39" height="39" rx="19.5" fill="white"/>
</clipPath>
<clipPath id="clip7_11_621">
<rect x="35" y="147" width="39" height="39" rx="19.5" fill="white"/>
</clipPath>
</defs>
</svg>
