<svg width="615" height="386" viewBox="0 0 615 386" fill="none" xmlns="http://www.w3.org/2000/svg">
<g id="Frame 20">
<rect width="615" height="386" fill="#21252E"/>
<g id="Frame 3">
<rect width="492" height="355" transform="translate(64 13)" fill="#DFDDDD"/>
<g id="Frame 4">
<rect width="295" height="297" transform="translate(95 42)" fill="#4A4444" fill-opacity="0.38"/>
<g id="form">
<rect x="117" y="63" width="251" height="256" rx="10" fill="#E4612B"/>
</g>
</g>
<g id="Frame 6">
<rect width="121" height="297" transform="translate(408 42)" fill="white" fill-opacity="0.1"/>
<g id="Frame 7" clip-path="url(#clip0_3_101)">
<rect width="100" height="276" transform="translate(420 53)" fill="#FAB9B9" fill-opacity="0.1"/>
<g id="red-button">
<rect x="435" y="71" width="67" height="67" rx="33.5" fill="#FC5959" fill-opacity="0.61"/>
</g>
<g id="green-button">
<rect x="435" y="152" width="67" height="67" rx="33.5" fill="#97FC59" fill-opacity="0.61"/>
</g>
<g id="flip-button">
<rect width="34" height="58" transform="translate(453 245)" fill="#282626" fill-opacity="0.58"/>
<rect id="Rectangle 1" x="455" y="274" width="30" height="27" fill="#707E9B"/>
<rect id="Rectangle 2" x="455" y="250" width="30" height="24" fill="#4B5B7D"/>
<g id="Frame 11">
<rect width="30" height="3" transform="translate(455 247)" fill="#707E9B"/>
</g>
</g>
</g>
</g>
</g>
<g id="Frame 15">
<g id="Frame 12">
<rect x="26" y="13" width="10" height="10" rx="5" fill="#70829B"/>
</g>
<g id="Frame 13">
<rect x="26" y="128" width="10" height="10" rx="5" fill="#70829B"/>
</g>
<g id="Frame 14">
<rect x="26" y="243" width="10" height="10" rx="5" fill="#70829B"/>
</g>
<g id="Frame 13_2">
<rect x="26" y="358" width="10" height="10" rx="5" fill="#70829B"/>
</g>
</g>
<g id="Frame 16">
<g id="Frame 12_2">
<rect x="580" y="13" width="10" height="10" rx="5" fill="#70829B"/>
</g>
<g id="Frame 13_3">
<rect x="580" y="128" width="10" height="10" rx="5" fill="#70829B"/>
</g>
<g id="Frame 14_2">
<rect x="580" y="243" width="10" height="10" rx="5" fill="#70829B"/>
</g>
<g id="Frame 13_4">
<rect x="580" y="358" width="10" height="10" rx="5" fill="#70829B"/>
</g>
</g>
</g>
<defs>
<clipPath id="clip0_3_101">
<rect width="100" height="276" fill="white" transform="translate(420 53)"/>
</clipPath>
</defs>
</svg>
